PathFileType	4	(X/Y/Z)	C:/Users/opensim2020/Desktop/walking_exp_matlab/subject02_walking04_straight_02.trc																																																																																																																												
DataRate	CameraRate	NumFrames	NumMarkers	Units	OrigDataRate	OrigDataStartFrame	OrigNumFrames																																																																																																																								
100	100	5	42	mm	100	1578	220																																																																																																																								
Frame#	Time	LFHD			RFHD			LBHD			RBHD			C7			T10			CLAV			STRN			RBAK			LSHO			LUPA			LELB			LFRM			LWRA			LWRB			LFIN			RSHO			RUPA			RELB			RFRM			RWRA			RWRB			RFIN			LASI			RASI			LPSI			RPSI			LTHI			LKNE			LTIB			LANK			LHEE			LTOE			RTHI			RKNE			RTIB			RANK			RHEE			RTOE			*39			*40			*41		
		X1	Y1	Z1	X2	Y2	Z2	X3	Y3	Z3	X4	Y4	Z4	X5	Y5	Z5	X6	Y6	Z6	X7	Y7	Z7	X8	Y8	Z8	X9	Y9	Z9	X10	Y10	Z10	X11	Y11	Z11	X12	Y12	Z12	X13	Y13	Z13	X14	Y14	Z14	X15	Y15	Z15	X16	Y16	Z16	X17	Y17	Z17	X18	Y18	Z18	X19	Y19	Z19	X20	Y20	Z20	X21	Y21	Z21	X22	Y22	Z22	X23	Y23	Z23	X24	Y24	Z24	X25	Y25	Z25	X26	Y26	Z26	X27	Y27	Z27	X28	Y28	Z28	X29	Y29	Z29	X30	Y30	Z30	X31	Y31	Z31	X32	Y32	Z32	X33	Y33	Z33	X34	Y34	Z34	X35	Y35	Z35	X36	Y36	Z36	X37	Y37	Z37	X38	Y38	Z38	X39	Y39	Z39	X40	Y40	Z40	X41	Y41	Z41	X42	Y42	Z42
																																																																																																																															
83	0.82	-372.86523	1739.75635	-1557.49194	-389.41284	1721.93665	-1415.36743	-505.23981	1670.82556	-1579.49316	-533.91003	1652.93262	-1439.54651	-573.51709	1531.28796	-1504.8822	-627.00317	1253.0105	-1499.2655	-433.18335	1461.12854	-1512.21863	-381.79922	1291.52295	-1495.44666	-633.74255	1356.98706	-1437.51782	-501.02594	1499.75305	-1682.79834	-502.01227	1299.51624	-1771.02258	-486.54364	1160.72546	-1790.42175	-454.85959	1033.01855	-1807.13257	-380.70605	917.80963	-1777.67322	-424.5209	914.30518	-1813.42603	-393.70895	856.02026	-1819.89661	-499.00006	1502.29297	-1317.82593	-516.43945	1312.24719	-1229.02271	-489.65427	1166.75256	-1209.646	-438.44623	1056.22705	-1193.47144	-365.33176	944.21027	-1215.04663	-409.84735	929.29535	-1183.0957	-358.0304	878.71002	-1181.10205	-376.3558	999.70197	-1618.92786	-395.67203	985.04614	-1364.11853	-592.5495	1034.15186	-1557.04419	-606.26166	1030.59204	-1443.42261	-434.63837	684.38416	-1671.8606	-467.77304	482.48056	-1640.01831	-523.05585	294.31238	-1637.71838	-517.43164	70.96786	-1596.03516	-554.93463	43.23753	-1547.1084	-359.89792	34.62816	-1595.77039	-445.54471	683.93329	-1272.90344	-416.97916	486.2645	-1274.80737	-542.77966	352.0455	-1289.04626	-645.12543	191.41997	-1330.61304	-679.60931	149.15685	-1398.11951	-563.67401	70.81401	-1265.11011	-480.84586	1810.78601	-1478.98511	-2845.85132	1033.75537	3356.85181	NaN	NaN	NaN
84	0.83	-363.86749	1739.70239	-1558.36047	-380.58429	1721.74609	-1416.11743	-496.15579	1671.25647	-1580.55688	-525.16022	1653.18982	-1440.75598	-564.79865	1531.62463	-1506.45117	-618.57764	1253.35266	-1501.07642	-424.81152	1461.22559	-1513.39465	-373.42963	1291.62146	-1496.90063	-625.48328	1357.328	-1439.67749	-491.93527	1500.53552	-1684.11377	-490.23969	1300.79089	-1773.27039	-472.19522	1162.13	-1793.37268	-436.69424	1035.37488	-1810.15393	-358.49039	922.92157	-1780.94763	-402.44385	917.59125	-1815.98303	-369.76605	860.53992	-1822.90845	-490.91293	1502.14185	-1318.974	-510.3559	1312.03564	-1230.953	-484.9679	1166.28638	-1211.62671	-435.29227	1055.21875	-1195.0105	-363.56271	942.23566	-1216.17676	-408.48392	927.91583	-1184.46484	-357.129	876.70551	-1181.95313	-369.41302	999.48932	-1620.99512	-387.41428	985.53436	-1366.42761	-585.06134	1034.15857	-1557.17322	-598.06934	1031.15271	-1443.29602	-430.23199	683.97083	-1672.34277	-464.64288	482.21136	-1639.99402	-520.9585	294.43228	-1637.64673	-517.15869	71.07631	-1595.81396	-554.83789	43.67472	-1547.29297	-359.68192	34.51006	-1595.70544	-432.93747	685.04175	-1273.70056	-401.91296	486.90714	-1276.651	-523.25818	348.08737	-1289.9967	-620.30438	184.05261	-1331.15271	-654.01477	140.67265	-1398.63721	-533.68011	67.37066	-1266.3844	-471.57846	1810.97437	-1479.87891	-2845.8833	1033.755	3356.98975	NaN	NaN	NaN
85	0.84	-354.46292	1739.64417	-1558.89026	-371.6384	1721.56531	-1417.04138	-486.96411	1671.4696	-1581.35828	-516.43347	1653.34143	-1441.84399	-556.08539	1531.83398	-1507.92163	-610.19165	1253.6062	-1502.71521	-417.8649	1460.97913	-1514.63123	-365.1174	1291.65991	-1498.48743	-616.86987	1357.31458	-1441.427	-482.83105	1501.04688	-1685.28223	-478.18546	1301.70264	-1775.06628	-458.00247	1163.65979	-1796.51953	-418.61334	1037.84302	-1813.13611	-336.35553	927.89996	-1783.82214	-380.81882	921.21478	-1818.63318	-346.10364	865.2998	-1825.65308	-483.42871	1501.87622	-1320.34082	-504.40726	1311.58569	-1232.60999	-480.32343	1165.78687	-1213.5874	-433.03079	1053.87256	-1196.80396	-361.30344	940.26746	-1217.02405	-406.9588	926.43524	-1185.85205	-356.15765	874.78046	-1182.74744	-362.69147	998.92535	-1623.03076	-378.1308	986.18445	-1368.39832	-577.59601	1034.13477	-1557.10791	-589.91968	1031.72388	-1442.99536	-425.51572	683.35925	-1672.60522	-461.34055	481.91394	-1639.89075	-519.04297	294.63779	-1637.51587	-516.72955	71.13054	-1595.51245	-554.72711	43.8482	-1547.10352	-359.55499	34.36713	-1595.73083	-420.6445	685.93689	-1274.50903	-387.0733	487.53772	-1278.5658	-503.70773	344.00363	-1290.96069	-595.05524	176.70088	-1331.58423	-627.61023	131.69429	-1398.67688	-503.07574	63.92963	-1267.69165	-462.28534	1811.02112	-1480.52771	-2845.74609	1033.78906	3356.90552	NaN	NaN	NaN
86	0.85	-345.23746	1739.23999	-1559.30554	-362.64838	1720.99097	-1417.46765	-477.99493	1671.73206	-1582.48425	-507.63647	1653.33594	-1442.8092	-547.38751	1531.88513	-1509.31372	-601.81061	1253.68896	-1504.17273	-409.12747	1460.75757	-1515.52429	-356.72488	1291.52148	-1499.81152	-609.03265	1357.44202	-1443.68726	-473.71198	1501.45288	-1686.4314	-466.40799	1302.7334	-1777.00024	-443.75717	1165.08459	-1799.40784	-400.53949	1040.38208	-1815.67761	-314.78525	933.56165	-1786.87817	-359.16705	924.86401	-1821.0011	-322.65952	870.27997	-1828.21533	-475.35278	1501.23206	-1321.38452	-498.31784	1311.00305	-1234.81433	-475.70169	1165.15454	-1215.40662	-429.20679	1052.95215	-1197.88318	-359.32153	938.18854	-1217.83167	-405.23886	924.83368	-1186.90796	-355.21652	872.60583	-1183.23389	-355.92166	998.21692	-1624.97961	-369.51389	986.36023	-1370.25952	-570.20325	1034.13574	-1556.85547	-581.73364	1032.28491	-1442.54663	-420.42181	682.4682	-1672.5332	-457.72116	481.44565	-1639.51013	-517.2594	294.84775	-1637.20911	-516.60736	71.44268	-1595.41821	-554.59412	43.87534	-1546.54797	-359.38531	34.29195	-1595.76038	-408.66693	686.76068	-1275.24829	-372.5498	487.91385	-1280.59741	-483.8425	339.90561	-1291.63818	-569.40112	169.36974	-1331.9021	-601.04095	123.10211	-1398.74475	-471.98248	60.89072	-1269.05493	-453.04572	1811.03723	-1481.28943	-2845.07861	1033.80981	3360.21704	NaN	NaN	NaN
87	0.86	-336.01324	1738.9325	-1559.76978	-353.71561	1720.63684	-1418.19226	-468.78769	1671.74829	-1583.10315	-498.84497	1653.27856	-1443.69568	-538.6947	1531.82446	-1510.58911	-593.46436	1253.65613	-1505.401	-400.66696	1460.73499	-1516.66846	-348.3313	1291.22717	-1501.12463	-600.66254	1357.26245	-1445.47925	-464.60693	1501.70825	-1687.5022	-454.85196	1303.88684	-1779.11902	-429.51852	1166.38098	-1802.12854	-382.56641	1042.81335	-1818.19031	-293.59885	938.99268	-1789.43103	-337.85538	928.63239	-1823.14819	-299.52362	875.3479	-1830.37964	-467.36908	1500.65747	-1322.41992	-492.39258	1310.47473	-1236.49561	-471.55951	1164.29944	-1217.15515	-425.71939	1051.53455	-1199.01672	-357.24872	936.20959	-1218.20642	-403.76315	923.2594	-1188.09888	-354.48639	870.54425	-1184.01001	-349.04626	997.25049	-1626.76746	-360.91425	986.37732	-1371.97681	-562.83228	1034.11743	-1556.53625	-573.54254	1032.82092	-1442.03784	-415.57681	682.04999	-1672.72815	-454.29221	481.29987	-1639.56787	-515.41742	295.04715	-1636.85083	-516.16412	71.45367	-1595.02649	-554.4071	44.11929	-1546.32056	-359.16876	34.20671	-1595.80017	-397.03156	687.38074	-1276.13904	-358.06393	488.28284	-1282.5918	-463.94464	335.84134	-1292.51941	-543.32825	162.17134	-1332.04456	-573.88892	114.40161	-1398.50427	-440.56534	58.20676	-1270.3717	-443.66632	1810.83142	-1481.68457	-2845.83276	1033.67224	3357.15796	NaN	NaN	NaN
